<svg width="90" height="27" viewBox="0 0 90 27" fill="none" xmlns="http://www.w3.org/2000/svg">
<g id="Group 7">
<path id="Fill 1" fill-rule="evenodd" clip-rule="evenodd" d="M55.5746 20.9733C50.428 24.9052 42.942 27 36.4853 27C27.4397 27 19.3299 23.5516 13.1539 17.8149C12.686 17.3637 13.0915 16.7514 13.6842 17.1059C20.328 21.1022 28.5314 23.4871 37.0155 23.4871C42.7236 23.4871 49.0243 22.2624 54.826 19.7164C55.6994 19.3619 56.4168 20.3287 55.5746 20.9733Z" fill="black"/>
<path id="Fill 3" fill-rule="evenodd" clip-rule="evenodd" d="M58.5152 18.1225C57.8485 17.347 54.0701 17.7491 52.3874 17.9502C51.8793 18.0076 51.7841 17.6055 52.2604 17.3183C55.2767 15.394 60.198 15.9685 60.7695 16.6003C61.3411 17.2322 60.6108 21.7125 57.785 23.8378C57.3405 24.1538 56.9277 23.9815 57.1182 23.5506C57.7532 22.1146 59.182 18.9267 58.5152 18.1225Z" fill="black"/>
<path id="Fill 5" fill-rule="evenodd" clip-rule="evenodd" d="M11.8487 15.6529C11.6613 15.8107 11.4115 15.8422 11.1929 15.716C10.2873 14.9586 10.0999 14.5799 9.60025 13.854C8.1013 15.4004 7.00832 15.8738 5.07218 15.8738C2.7613 15.8738 0.950073 14.4221 0.950073 11.5503C0.950073 9.27811 2.16797 7.76331 3.88551 7.00592C5.38446 6.34319 7.47674 6.21696 9.06937 6.02761V5.68047C9.06937 5.01775 9.13183 4.2288 8.72586 3.66075C8.38235 3.15582 7.75779 2.93491 7.19569 2.93491C6.13393 2.93491 5.19709 3.4714 4.97849 4.60749C4.91604 4.85996 4.7599 5.11243 4.51007 5.11243L1.85569 4.8284C1.63709 4.76529 1.38727 4.60749 1.44972 4.26035C2.07428 0.978304 4.97849 0 7.60165 0C8.94446 0 10.6932 0.34714 11.755 1.38856C13.0978 2.65089 12.9729 4.35503 12.9729 6.1854V10.5089C12.9729 11.8028 13.5038 12.3708 14.0034 13.0966C14.1908 13.3491 14.222 13.6647 14.0034 13.8225C13.4101 14.2959 12.4108 15.1795 11.8487 15.6529ZM9.10064 8.86816C9.10064 9.94114 9.13187 10.8563 8.60099 11.8346C8.1638 12.6236 7.47678 13.097 6.69608 13.097C5.63433 13.097 5.00977 12.2764 5.00977 11.0772C5.00977 8.71037 7.10205 8.26855 9.10064 8.26855V8.86816ZM47.9483 15.6529C47.7609 15.8107 47.5111 15.8422 47.2925 15.716C46.3869 14.9586 46.1995 14.5799 45.6999 13.854C44.2009 15.4004 43.108 15.8738 41.1718 15.8738C38.861 15.8738 37.0497 14.4221 37.0497 11.5503C37.0497 9.27811 38.2676 7.76331 39.9852 7.00592C41.4841 6.34319 43.5764 6.21696 45.169 6.02761V5.68047C45.169 5.01775 45.2315 4.2288 44.8255 3.66075C44.482 3.15582 43.8574 2.93491 43.2953 2.93491C42.2336 2.93491 41.2967 3.4714 41.0781 4.60749C41.0157 4.85996 40.8595 5.11243 40.6097 5.11243L37.9553 4.8284C37.7367 4.76529 37.4869 4.60749 37.5494 4.26035C38.1739 0.978304 41.0781 0 43.7013 0C45.0441 0 46.7929 0.34714 47.8546 1.38856C49.1974 2.65089 49.0725 4.35503 49.0725 6.1854V10.5089C49.0725 11.8028 49.6034 12.3708 50.1031 13.0966C50.2904 13.3491 50.3217 13.6647 50.1031 13.8225C49.5097 14.2959 48.5104 15.1795 47.9483 15.6529ZM45.169 8.86816C45.169 9.94114 45.2002 10.8563 44.6694 11.8346C44.2322 12.6236 43.5451 13.097 42.7644 13.097C41.7027 13.097 41.0781 12.2764 41.0781 11.0772C41.0781 8.71037 43.1704 8.26855 45.169 8.26855V8.86816ZM81.862 15.6842H79.1139C78.8329 15.6526 78.6143 15.4317 78.6143 15.1792V0.883373C78.6455 0.630908 78.8641 0.41 79.1451 0.41H81.7058C81.9557 0.41 82.143 0.599349 82.2055 0.820257V2.99777H82.2679C83.0486 1.04116 84.1104 0.125977 86.0153 0.125977C87.2332 0.125977 88.4511 0.567791 89.2318 1.79856C89.9501 2.93466 89.9501 4.8597 89.9501 6.24826V15.2423C89.9188 15.4948 89.7002 15.6842 89.4192 15.6842H86.6711C86.4213 15.6526 86.2027 15.4633 86.1714 15.2423V7.47903C86.1714 5.90112 86.3588 3.62894 84.4539 3.62894C83.7981 3.62894 83.1736 4.07075 82.8613 4.76503C82.4865 5.64866 82.4241 6.50073 82.4241 7.47903V15.1792C82.3929 15.4633 82.143 15.6842 81.862 15.6842ZM70.2763 3.06152C68.2465 3.06152 68.1216 5.8702 68.1216 7.6059C68.1216 9.3416 68.0904 13.0655 70.2451 13.0655C72.3686 13.0655 72.4935 10.0674 72.4935 8.23707C72.4935 7.03785 72.4311 5.58618 72.0876 4.45008C71.7753 3.44022 71.1507 3.06152 70.2763 3.06152ZM70.2764 0.125977C74.3673 0.125977 76.5844 3.66049 76.5844 8.17331C76.5844 12.5283 74.1487 15.9997 70.2764 15.9997C66.2792 15.9997 64.0932 12.4652 64.0932 8.04708C64.062 3.59738 66.2792 0.125977 70.2764 0.125977ZM19.3747 15.6842H16.6266C16.3768 15.6526 16.1582 15.4633 16.127 15.2108V0.946489C16.127 0.662466 16.3768 0.441558 16.6578 0.441558H19.2185C19.4996 0.441558 19.687 0.662466 19.7182 0.914931V2.77686H19.7806C20.4364 0.978047 21.7168 0.125977 23.4031 0.125977C25.1206 0.125977 26.2136 0.978047 26.9631 2.77686C27.6189 0.978047 29.1491 0.125977 30.7729 0.125977C31.9284 0.125977 33.1775 0.599349 33.9582 1.70389C34.8326 2.9031 34.6452 4.6388 34.6452 6.18515V15.2108C34.6452 15.4948 34.3954 15.7157 34.1143 15.7157H31.3975C31.1164 15.6842 30.8978 15.4633 30.8978 15.2108V7.63682C30.8978 7.03722 30.9603 5.52243 30.8354 4.95438C30.6168 4.00763 30.0234 3.72361 29.2115 3.72361C28.5557 3.72361 27.8375 4.16542 27.5564 4.89126C27.2754 5.6171 27.3066 6.81631 27.3066 7.63682V15.2108C27.3066 15.4948 27.0568 15.7157 26.7757 15.7157H24.0277C23.7466 15.6842 23.528 15.4633 23.528 15.2108V7.63682C23.528 6.05892 23.7778 3.69205 21.8417 3.69205C19.8743 3.69205 19.9368 5.96424 19.9368 7.63682V15.2108C19.9056 15.4633 19.687 15.6842 19.3747 15.6842ZM52.3827 2.96647V0.915187C52.3827 0.599606 52.6013 0.410256 52.8824 0.410256H61.9385C62.2196 0.410256 62.4694 0.631164 62.4694 0.915187V2.65089C62.4694 2.93491 62.2196 3.31361 61.7824 3.94477L57.0981 10.6982C58.8469 10.6667 60.6894 10.9191 62.2508 11.8028C62.5943 11.9921 62.688 12.3077 62.7192 12.5917V14.7692C62.7192 15.0848 62.4069 15.432 62.0634 15.2426C59.2841 13.7594 55.568 13.6016 52.5076 15.2742C52.1953 15.432 51.8518 15.1164 51.8518 14.8008V12.7179C51.8518 12.4024 51.8518 11.8343 52.1953 11.3294L57.629 3.4714H52.9136C52.6325 3.4714 52.3827 3.25049 52.3827 2.96647Z" fill="black"/>
</g>
</svg>
