<svg width="41" height="35" viewBox="0 0 41 35" fill="none" xmlns="http://www.w3.org/2000/svg">
<g id="GSK logo">
<g id="Group 5">
<mask id="mask0_516_949" style="mask-type:luminance" maskUnits="userSpaceOnUse" x="0" y="0" width="41" height="35">
<path id="Clip 3" fill-rule="evenodd" clip-rule="evenodd" d="M0.280029 0.00585938H40.9501V34.9941H0.280029V0.00585938Z" fill="white"/>
</mask>
<g mask="url(#mask0_516_949)">
<path id="Fill 1" fill-rule="evenodd" clip-rule="evenodd" d="M10.568 21.9547C9.43571 21.9087 8.89335 21.8341 8.19163 21.781C5.14096 23.4643 7.71527 25.654 11.0171 25.2981C13.1436 25.0699 13.92 24.0784 13.6574 23.1572C13.4838 22.5473 12.7834 22.0408 10.568 21.9547Z" fill="black"/>
<path id="Fill 2" fill-rule="evenodd" clip-rule="evenodd" d="M9.48159 16.8635C11.027 16.8635 11.8263 15.8131 11.8263 14.3366C11.8263 12.7223 10.8994 11.4365 9.1745 11.4365C7.66495 11.4365 6.75806 12.441 6.75806 13.9147C6.75806 15.5692 7.71954 16.8635 9.48159 16.8635Z" fill="black"/>
<path id="Fill 4" fill-rule="evenodd" clip-rule="evenodd" d="M33.5313 21.8242C32.4193 21.8242 31.4823 21.21 30.3329 19.8483C28.5019 17.6543 27.0267 15.8921 27.0267 15.8921V18.7706C27.0267 20.7824 27.1344 21.1053 27.3137 21.5717H24.6534C24.8687 20.9977 24.9776 20.7824 24.9776 18.7706V8.81353C24.9776 7.1949 24.8687 6.47608 24.5443 6.04407L27.0267 5.39843V15.0326L30.297 11.9761C30.297 11.9761 30.9441 11.4007 31.5196 10.6474H34.3579C34.2158 10.6819 33.7107 10.791 31.9157 12.4785L28.8577 15.3526C28.8577 15.3526 30.8581 17.7806 32.5843 19.6861C33.9145 21.124 34.754 21.2832 35.3652 21.2832C35.4729 21.2832 35.6163 21.2488 35.724 21.21C35.1859 21.6089 34.3953 21.8242 33.5313 21.8242ZM19.3269 21.9688C18.0684 21.9688 16.9535 21.7162 15.8027 21.2484V19.5968C16.9893 20.2411 18.4631 20.6357 19.3957 20.6357C20.403 20.6357 21.6616 20.3846 21.6616 19.2008C21.6616 18.0139 20.403 17.4386 19.037 16.7914C17.5274 16.074 15.9103 15.2847 15.9103 13.4495C15.9103 11.2196 18.0684 10.251 20.007 10.251C21.0503 10.251 22.092 10.5021 22.9916 11.0058V12.623C22.1264 11.937 21.0861 11.5438 19.9726 11.5438C18.8906 11.5438 17.8503 11.9757 17.8503 12.9473C17.8503 14.0951 19.2178 14.7438 20.6528 15.4628C22.1652 16.2203 23.7464 17.0784 23.7464 18.7301C23.7464 21.1408 21.3386 21.9688 19.3269 21.9688ZM14.5571 24.7984C12.7419 27.0685 6.90735 27.301 5.25439 25.1198C4.12933 23.6347 5.63751 22.3591 7.25899 21.653C6.14259 21.3531 5.5714 20.5137 5.5714 19.7044C5.5714 18.8764 6.14692 18.1589 7.22457 17.6539C5.78672 17.1157 4.79376 15.7512 4.79376 14.2114C4.79376 11.9772 6.53289 10.251 9.34966 10.251C9.9595 10.251 10.6756 10.393 11.2854 10.5738C11.792 10.7159 12.33 10.8249 12.9039 10.8249C13.5871 10.8249 14.3777 10.7906 15.0234 10.6097V12.049C14.6647 11.9757 13.5154 11.9026 12.9039 11.9026C13.4781 12.5512 13.8038 13.4495 13.8038 14.3133C13.8038 16.3266 12.2196 18.014 9.41704 18.014C9.17743 18.014 8.91776 18.0025 8.615 17.9666C8.3208 18.0241 8.0568 18.1518 7.85162 18.3197C7.54601 18.5679 7.40388 18.8837 7.40388 19.1649C7.40388 19.6312 7.6363 19.9713 8.80582 20.0631C11.3184 20.2612 12.8566 20.2955 13.8884 20.7692C15.0134 21.2871 15.9791 23.0205 14.5571 24.7984ZM25.7483 0.00585938C17.6738 0.00585938 0.273682 1.70771 0.273682 14.6853C0.273682 23.5059 9.1029 34.9941 18.8677 34.9941C22.026 34.9941 24.7294 33.8735 27.2591 32.0166C33.2946 27.5281 40.9501 17.4648 40.9501 9.64872C40.9501 3.79415 36.8245 0.00585938 25.7483 0.00585938Z" fill="black"/>
</g>
</g>
</g>
</svg>
