<svg width="29" height="35" viewBox="0 0 29 35" fill="none" xmlns="http://www.w3.org/2000/svg">
<g id="Apple logo">
<path id="Fill 1" fill-rule="evenodd" clip-rule="evenodd" d="M16.5067 3.60388C18.7671 0.713797 21.9097 0.699707 21.9097 0.699707C21.9097 0.699707 22.3771 3.41688 20.1315 6.03438C17.7337 8.82929 15.0083 8.37189 15.0083 8.37189C15.0083 8.37189 14.4966 6.17385 16.5067 3.60388Z" fill="black"/>
<path id="Fill 3" fill-rule="evenodd" clip-rule="evenodd" d="M15.1903 10.6417C16.3514 10.6417 18.5059 9.1001 21.3105 9.1001C26.1382 9.1001 28.0374 12.4185 28.0374 12.4185C28.0374 12.4185 24.3229 14.253 24.3229 18.7044C24.3229 23.7261 28.9501 25.4567 28.9501 25.4567C28.9501 25.4567 25.7155 34.2513 21.3465 34.2513C19.3397 34.2513 17.7797 32.945 15.6654 32.945C13.5108 32.945 11.3725 34.3001 9.97993 34.3001C5.99032 34.3001 0.950073 25.9575 0.950073 19.2515C0.950073 12.6537 5.21632 9.19254 9.21788 9.19254C11.8193 9.19254 13.838 10.6417 15.1903 10.6417Z" fill="black"/>
</g>
</svg>
