<svg width="74" height="55" viewBox="0 0 74 55" fill="none" xmlns="http://www.w3.org/2000/svg">
<g id="PricewaterhouseCoopers_Logo">
<g id="Group 16">
<path id="path4061" d="M72.9501 23.7837H46.9707V17.0945H72.9501V23.7837Z" stroke="black" stroke-width="0.743243"/>
<path id="path4103" d="M69.981 23.784H46.9707V6.68945H69.981V23.784Z" stroke="black" stroke-width="0.743243"/>
<path id="path4089" d="M60.3315 23.7838H46.9707V0H60.3315V23.7838Z" stroke="black" stroke-width="0.743243"/>
<path id="path4075" d="M63.3006 23.7835H46.9707V2.97266H63.3006V23.7835V23.7835Z" stroke="black" stroke-width="0.743243"/>
<path id="path4688" d="M46.9707 2.97266V23.7835H60.3315V2.97266L46.9707 2.97266Z" stroke="black" stroke-width="0.743243"/>
<path id="path4119" d="M33.6099 23.7842H46.9707V27.5004H33.6099V23.7842Z" stroke="black" stroke-width="0.743243"/>
<path id="path4698" d="M46.9707 6.68945V23.784H63.3006V6.68945L46.9707 6.68945Z" stroke="black" stroke-width="0.743243"/>
<path id="path4693" d="M46.9707 6.68945V23.784H60.3315V6.68945L46.9707 6.68945Z" stroke="black" stroke-width="0.743243"/>
<path id="path4117" d="M55.1357 23.7833H46.9707V13.3779H55.1357V23.7833Z" stroke="black" stroke-width="0.743243"/>
<path id="path4713" d="M46.9707 17.0945V23.7837H69.981V17.0945H46.9707Z" stroke="black" stroke-width="0.743243"/>
<path id="path4708" d="M46.9707 17.0945V23.7837H63.3006V17.0945H46.9707Z" stroke="black" stroke-width="0.743243"/>
<path id="path4703" d="M46.9707 17.0945V23.7837H60.3315V17.0945H46.9707Z" stroke="black" stroke-width="0.743243"/>
<path id="path4625" d="M46.9707 17.0945V23.7837H55.1357V17.0945H46.9707Z" stroke="black" stroke-width="0.743243"/>
<g id="g2925">
<path id="path2850" d="M49.5856 36.4526C47.3082 36.858 46.0936 38.581 46.0936 41.5709C46.0936 44.6114 47.7131 46.6385 50.0917 46.6385C51.2557 46.6385 52.2679 46.233 54.3935 45.1689C54.3935 47.652 54.3935 47.652 54.3935 47.652C51.8124 48.8682 50.2941 49.1722 48.2698 49.1722C45.9923 49.1722 44.3728 48.6148 43.1076 47.2466C41.7918 45.929 41.0833 44.206 41.0833 42.2297C41.0833 37.9222 44.3222 34.9324 49.0289 34.9324C52.1161 34.9324 54.2922 36.402 54.2922 38.4797C54.2922 39.8479 53.2801 40.8108 51.8124 40.8108C51.0533 40.8108 50.446 40.5574 49.5856 40.1013" fill="black"/>
<path id="path2852" d="M38.1985 42.2297C40.2735 39.6452 41.0326 38.581 41.0326 37.3141C41.0326 36.0472 40.0204 34.9324 38.6034 34.9324C37.7936 34.9324 37.0345 35.3885 36.6802 35.7939C36.6802 41.1148 36.6802 41.1148 36.6802 41.1148C33.2894 45.6756 33.2894 45.6756 33.2894 45.6756C33.2894 35.3378 33.2894 35.3378 33.2894 35.3378C30.0504 35.3378 30.0504 35.3378 30.0504 35.3378C24.6859 44.206 24.6859 44.206 24.6859 44.206C24.6859 35.3378 24.6859 35.3378 24.6859 35.3378C22.8639 35.3378 22.8639 35.3378 22.8639 35.3378C17.9548 36.4526 17.9548 36.4526 17.9548 36.4526C17.9548 37.7195 17.9548 37.7195 17.9548 37.7195C20.6371 37.9729 20.6371 37.9729 20.6371 37.9729C20.6371 48.9695 20.6371 48.9695 20.6371 48.9695C24.0279 48.9695 24.0279 48.9695 24.0279 48.9695C29.1901 40.456 29.1901 40.456 29.1901 40.456C29.1901 48.9695 29.1901 48.9695 29.1901 48.9695C32.9858 48.9695 32.9858 48.9695 32.9858 48.9695" fill="black"/>
<path id="path2862" fill-rule="evenodd" clip-rule="evenodd" d="M9.90802 53.733L7.68122 53.2263V48.8682C7.75764 48.8724 7.83372 48.8767 7.90925 48.8809C8.73405 48.927 9.495 48.9695 9.95863 48.9695C14.5135 48.9695 17.4994 45.9796 17.4994 41.6215C17.4994 37.8209 15.2726 35.0844 12.3373 35.0844C11.0214 35.0844 10.1611 35.3377 7.68122 36.858V35.0337H6.26416L0.950195 36.6553V37.9222H3.177V53.2263L1.15263 53.733V54.9999H9.90802V53.733ZM8.44035 47.2465H7.68122V38.1249C8.44035 37.9729 8.89584 37.9222 9.19949 37.9222C11.4769 37.9222 12.6915 39.4425 12.6915 42.2296C12.6915 45.5742 11.1733 47.2465 8.44035 47.2465Z" fill="black"/>
</g>
</g>
</g>
</svg>
