<svg width="122" height="25" viewBox="0 0 122 25" fill="none" xmlns="http://www.w3.org/2000/svg">
<g id="Saintburys logo">
<g id="Clipped">
<g id="Object">
<mask id="mask0_516_980" style="mask-type:luminance" maskUnits="userSpaceOnUse" x="0" y="0" width="122" height="25">
<rect id="Rectangle" x="0.950195" y="0.5" width="121" height="24" fill="white"/>
</mask>
<g mask="url(#mask0_516_980)">
<path id="Shape" fill-rule="evenodd" clip-rule="evenodd" d="M111.963 0.5C114.505 0.5 112.957 5.82168 111.583 5.82168H110.969C110.765 5.82168 110.619 5.70168 110.619 5.54884C110.619 5.15474 111.085 4.7 111.085 3.43179C111.085 2.19263 110.211 1.28568 110.211 0.921895C110.211 0.74 110.269 0.5 110.59 0.5H111.963ZM30.4535 0.604492C29.1776 0.604492 28.5668 1.39902 28.5668 2.31733C28.5668 3.41628 29.3212 4.15144 30.4535 4.15144C31.5857 4.15144 32.2822 3.41628 32.2822 2.31733C32.2822 1.39902 31.6726 0.604492 30.4535 0.604492ZM13.4027 13.5821C13.4027 19.6958 6.38233 21.0954 1.45021 18.6929C1.15675 18.511 1.09629 18.3568 1.09629 18.0827V16.5328C1.09629 16.2587 1.18572 15.9846 1.68447 15.9846C1.94896 15.9846 2.12529 16.1362 2.50817 16.4091C6.59014 19.3623 10.1129 17.599 10.1129 15.0726C10.1129 10.9055 0.950195 12.1813 0.950195 6.03474C0.950195 3.20527 3.06612 0.708008 6.9705 0.708008C8.90884 0.708008 10.6709 1.1059 11.6696 1.50127C11.9354 1.62127 11.9933 1.77411 11.9933 2.05074V3.81285C11.9933 4.08696 11.9051 4.30169 11.5815 4.30169C11.3182 4.30169 11.1129 4.14759 10.7892 3.90759C9.61415 3.02338 8.49825 2.50548 7.02844 2.50548C5.38608 2.50548 4.09385 3.4478 4.09385 4.84611C4.09385 8.31601 13.4027 7.95348 13.4027 13.5821ZM60.594 0.708008C60.4467 0.708008 60.3006 0.862113 60.3006 1.07685H60.2993V16.8158C60.2993 17.3059 60.3875 17.8819 60.8283 18.2154C61.856 19.0402 63.414 19.8044 65.5299 19.8044C69.4091 19.8044 72.5515 16.692 72.5515 11.9956C72.5515 8.33496 70.6434 5.58885 67.6169 5.58885C65.6168 5.58885 64.3246 6.65874 63.7654 7.14632V1.07685C63.7654 0.86085 63.6193 0.708008 63.4153 0.708008H60.594ZM20.9621 5.50879H20.9633C25.0959 5.50914 26.3577 7.21304 26.3577 9.67721V19.1345C26.3577 19.3479 26.2103 19.4995 26.005 19.4995H23.3374C23.1913 19.4995 23.044 19.3479 23.044 19.1345L22.986 18.345C22.0477 19.1938 20.9331 19.8052 19.5842 19.8052C17.1207 19.8052 15.0098 18.345 15.0098 15.6077C15.0098 12.2932 18.5577 11.5631 20.1132 11.3509C22.6636 11.0149 22.8916 10.8861 22.8916 10.1888L22.8979 10.1332C22.8979 8.64142 22.6334 7.425 20.8462 7.425C19.4079 7.425 18.3222 7.94542 17.239 8.70458C17.0627 8.82458 16.7995 9.15932 16.4468 9.15932C16.2705 9.15932 15.9481 8.97995 15.9481 8.55047V7.18247C15.944 6.87536 16.1139 6.59247 16.3864 6.45237C17.5599 5.84621 19.3779 5.50897 20.9621 5.50879ZM35.0947 6.17953V19.1269C35.0947 19.3353 35.2408 19.4919 35.3882 19.4919H38.2157C38.421 19.4919 38.5684 19.3353 38.5684 19.1269V8.68563C39.1288 8.34837 40.3064 7.73953 41.3077 7.73953C43.2524 7.73953 43.3695 8.95974 43.3695 9.99679V19.1294C43.3695 19.3366 43.5156 19.4932 43.6642 19.4932H46.4918C46.6958 19.4932 46.8444 19.3366 46.8444 19.1282V9.69237C46.8444 7.2191 45.5774 5.50879 42.7498 5.50879C41.1301 5.50879 39.4223 6.33363 38.5381 6.88437H38.4827V6.17953C38.4827 5.96858 38.3354 5.81321 38.1288 5.81321H35.3894C35.2421 5.81321 35.096 5.96858 35.096 6.17953H35.0947ZM95.5345 8.33663C92.4816 7.51179 91.9828 8.42884 91.9828 9.89537V19.1253C91.9828 19.3349 91.8367 19.4916 91.6289 19.4916H88.814C88.6653 19.4916 88.5192 19.3349 88.5192 19.1265V6.16779C88.5192 5.95558 88.6653 5.80021 88.814 5.80021H91.3669C91.5722 5.80021 91.7196 5.95558 91.7196 6.16779V7.17579L91.7775 7.20863C92.8632 6.13621 94.1542 5.12947 96.2663 5.64989C96.6492 5.74337 96.8545 5.98463 96.8545 6.29032V8.09411C96.8545 8.30884 96.6769 8.51979 96.4741 8.51979C96.1517 8.51979 95.9149 8.42884 95.5345 8.33663ZM48.6517 9.80569C48.6517 5.52232 53.7627 4.63937 57.5789 6.28274C57.9315 6.43305 58.0197 6.73621 58.0197 7.07095V8.07516C58.0197 8.49832 57.8421 8.62084 57.5487 8.62084C57.4013 8.62084 57.1683 8.49832 56.992 8.37705C54.876 6.89158 51.2059 6.70842 51.2059 8.68274C51.2059 11.0815 58.6935 9.98758 58.6935 14.7876C58.6935 20.3808 52.7034 20.348 49.4452 18.8284C49.0925 18.6465 49.0044 18.3749 49.0044 18.0377V16.8541C49.0044 16.4297 49.1807 16.3097 49.4741 16.3097C49.6782 16.3097 49.8545 16.3981 50.0308 16.5497C52.5561 18.5568 56.0511 18.3446 56.0511 16.2465C56.0511 13.6331 48.6517 14.6373 48.6517 9.80569ZM111.818 9.80569C111.818 5.52232 116.927 4.63937 120.743 6.28274V6.28147C121.096 6.43179 121.184 6.73495 121.184 7.06968V8.0739C121.184 8.49705 121.006 8.61958 120.713 8.61958C120.568 8.61958 120.332 8.49705 120.156 8.37579C118.043 6.89032 114.374 6.70716 114.374 8.68147C114.374 11.0802 121.86 9.98632 121.86 14.7863C121.86 20.3808 115.869 20.348 112.612 18.8284C112.259 18.6465 112.171 18.3749 112.171 18.0377V16.8541C112.171 16.4297 112.346 16.3097 112.64 16.3097C112.845 16.3097 113.021 16.3981 113.197 16.5497C115.723 18.5568 119.218 18.3446 119.218 16.2465C119.218 13.6331 111.818 14.6373 111.818 9.80569ZM28.7671 19.1261V6.1876C28.7671 5.97666 28.9132 5.82129 29.0568 5.82129H31.8339C32.0367 5.82129 32.1815 5.97666 32.1815 6.18887V19.1261C32.1815 19.3346 32.0354 19.4912 31.8339 19.4912H29.0568C28.9132 19.4912 28.7671 19.3346 28.7671 19.1261ZM86.0091 19.1362V6.18887C86.0091 5.97666 85.8617 5.82129 85.7144 5.82129H82.8881C82.6815 5.82129 82.5354 5.97666 82.5354 6.18887V16.6301C81.9762 16.9661 80.7974 17.5762 79.7961 17.5762C77.854 17.5762 77.7343 16.3586 77.7343 15.3177V6.18887C77.7343 5.97666 77.5869 5.82129 77.4408 5.82129H74.6146C74.4068 5.82129 74.2594 5.97666 74.2594 6.18887V15.6221C74.2594 18.0941 75.5264 19.8032 78.354 19.8032C79.9724 19.8032 81.6802 18.9796 82.5644 18.4327H82.6236V19.1362C82.6236 19.3447 82.7697 19.5 82.9762 19.5H85.7144C85.8617 19.5 86.0091 19.3447 86.0091 19.1362ZM104.133 15.252L103.957 14.6748L101.164 6.15729C101.076 5.91476 100.96 5.82129 100.695 5.82129H97.697C97.5207 5.82129 97.4325 5.91476 97.4325 6.09666C97.4325 6.1876 97.4615 6.27982 97.5799 6.58297L102.458 18.8407C103.282 20.911 100.871 22.4002 98.5485 21.732C98.1958 21.6398 97.9615 21.5489 97.6378 21.5489C97.4338 21.5489 97.2562 21.7623 97.2562 21.9733V23.7089C97.2562 24.0752 97.4917 24.4996 98.784 24.4996C101.9 24.4996 103.575 22.8575 105.074 18.9935L109.893 6.49203C109.952 6.31013 110.01 6.21918 110.01 6.09666C110.013 5.94784 109.895 5.82474 109.746 5.82129H107.658C107.454 5.82129 107.307 5.94508 107.248 6.15729L104.369 14.6748L104.133 15.252ZM64.1799 17.8234C64.4721 18.0053 64.9129 18.1569 65.7643 18.1569C67.646 18.1569 68.9672 16.1447 68.9672 12.7303C68.9672 11.447 68.7027 7.8457 66.0288 7.8457C64.9721 7.8457 64.2076 8.45833 63.7655 8.79307V17.0289C63.7655 17.3068 63.826 17.5783 64.1786 17.8246L64.1799 17.8234ZM22.84 16.5797C22.84 16.9776 21.8387 18.0475 20.4847 18.0475C18.9255 18.0475 18.3361 16.8854 18.3361 15.7271C18.3361 14.0774 19.5716 12.5527 22.84 12.5527V16.5797Z" fill="black"/>
</g>
</g>
<mask id="mask1_516_980" style="mask-type:luminance" maskUnits="userSpaceOnUse" x="0" y="0" width="122" height="25">
<rect id="rect-1" x="0.950195" y="0.5" width="121" height="24" fill="white"/>
</mask>
<g mask="url(#mask1_516_980)">
</g>
</g>
</g>
</svg>
