<svg xmlns="http://www.w3.org/2000/svg" viewBox="0 0 48 39" width="48" height="39" preserveAspectRatio="xMinYMin meet" style="width: 100%; height: 100%; transform: translate3d(0px, 0px, 0px);"><defs><clipPath id="__lottie_element_10"><rect width="48" height="39" x="0" y="0"></rect></clipPath></defs><g clip-path="url(#__lottie_element_10)"><g transform="matrix(1,0,0,1,0.36300086975097656,1.0629997253417969)" opacity="1" style="display: block;"><g opacity="1" transform="matrix(1,0,0,1,0,0)"><path fill="rgb(255,215,151)" fill-opacity="1" d=" M23.413999557495117,0 C17.53499984741211,1.11899995803833 10.612000465393066,-2.111999988555908 5.435999870300293,3.2730000019073486 C-2.296999931335449,11.317000389099121 -2.0209999084472656,28.3799991607666 7.820000171661377,34.33300018310547 C11.131999969482422,36.33700180053711 19.957000732421875,36.112998962402344 22.211999893188477,35.78499984741211 C39.231998443603516,33.30699920654297 43.27899932861328,5.750999927520752 25.20599937438965,0.5899999737739563 C25.20599937438965,0.5899999737739563 23.413999557495117,0 23.413999557495117,0z"></path></g></g><g transform="matrix(1,0,0,1,8,9)" opacity="1" style="display: block;"><g opacity="1" transform="matrix(1,0,0,1,0,0)"><path stroke-linecap="round" stroke-linejoin="round" fill-opacity="0" stroke="rgb(0,0,0)" stroke-opacity="1" stroke-width="2" d=" M2.302999973297119,0.3619999885559082 C4.116000175476074,0.04600000008940697 4.14300012588501,0.0729999989271164 5.984000205993652,0.04100000113248825 C13.706999778747559,-0.09200000017881393 21.437999725341797,0.10700000077486038 29.152000427246094,0.4959999918937683 C36.750999450683594,0.8790000081062317 33.75899887084961,11.138999938964844 31.260000228881836,12.359999656677246 C28.30299949645996,13.803999900817871 20.350000381469727,14.190999984741211 13.317000389099121,13.918000221252441 C7.334000110626221,13.6850004196167 2.0179998874664307,12.97599983215332 1.0089999437332153,12.031000137329102 C-0.9729999899864197,10.175000190734863 0.5669999718666077,2.377000093460083 0.628000020980835,1.6859999895095825 C0.628000020980835,1.6859999895095825 0.49000000953674316,0.6779999732971191 2.302999973297119,0.3619999885559082z"></path></g></g><g transform="matrix(1,0,0,1,9,22)" opacity="1" style="display: block;"><g opacity="1" transform="matrix(1,0,0,1,0,0)"><path stroke-linecap="round" stroke-linejoin="round" fill-opacity="0" stroke="rgb(0,0,0)" stroke-opacity="1" stroke-width="2" d=" M0.4790000021457672,0 C0.37400001287460327,2.8469998836517334 -0.3059999942779541,6 0.164000004529953,8.541999816894531 C0.6340000033378601,11.083999633789062 1.6100000143051147,11.225000381469727 1.6100000143051147,11.225000381469727 C5.8429999351501465,12.194999694824219 26.374000549316406,12.274999618530273 30.128999710083008,11.348999977111816 C31.261999130249023,11.069000244140625 30.881000518798828,9.222000122070312 30.94700050354004,8.116000175476074 C31.107999801635742,5.425000190734863 30.854000091552734,2.7260000705718994 30.808000564575195,0.03099999949336052"></path></g></g><g transform="matrix(1,0,0,1,20.999000549316406,9)" opacity="1" style="display: block;"><g opacity="1" transform="matrix(1,0,0,1,0,0)"><path stroke-linecap="round" stroke-linejoin="round" fill-opacity="0" stroke="rgb(0,0,0)" stroke-opacity="1" stroke-width="2" d=" M0,0 C0.0010000000474974513,2.6670000553131104 0.0010000000474974513,5.333000183105469 0.0020000000949949026,8"></path></g></g><g transform="matrix(1,0,0,1,27.985000610351562,9)" opacity="1" style="display: block;"><g opacity="1" transform="matrix(1,0,0,1,0,0)"><path stroke-linecap="round" stroke-linejoin="round" fill-opacity="0" stroke="rgb(0,0,0)" stroke-opacity="1" stroke-width="2" d=" M0,0 C0.009999999776482582,2.6670000553131104 0.01899999938905239,5.333000183105469 0.028999999165534973,8"></path></g></g><g transform="matrix(1,0,0,1,19,1)" opacity="1" style="display: block;"><g opacity="1" transform="matrix(1,0,0,1,0,0)"><path stroke-linecap="round" stroke-linejoin="round" fill-opacity="0" stroke="rgb(0,0,0)" stroke-opacity="1" stroke-width="2" d=" M0,7.8979997634887695 C0.8740000128746033,-0.6579999923706055 10.810999870300293,-4.480000019073486 12,8"></path></g></g><g transform="matrix(1,0,0,1,20,23)" opacity="1" style="display: block;"><g opacity="1" transform="matrix(1,0,0,1,0,0)"><path stroke-linecap="round" stroke-linejoin="round" fill-opacity="0" stroke="rgb(0,0,0)" stroke-opacity="1" stroke-width="2" d=" M0,0.11599999666213989 C3.000999927520752,6.193999767303467 6.589000225067139,7.090000152587891 9,0"></path></g></g><g transform="matrix(1,0,0,1,24.98900032043457,23)" opacity="1" style="display: block;"><g opacity="1" transform="matrix(1,0,0,1,0,0)"><path stroke-linecap="round" stroke-linejoin="round" fill-opacity="0" stroke="rgb(0,0,0)" stroke-opacity="1" stroke-width="2" d=" M0.02199999988079071,0 C0.014999999664723873,0.6669999957084656 0.007000000216066837,1.3329999446868896 0,2"></path></g></g></g></svg>