<svg xmlns="http://www.w3.org/2000/svg" viewBox="0 0 48 38" width="48" height="38" preserveAspectRatio="xMinYMin meet" style="width: 100%; height: 100%; transform: translate3d(0px, 0px, 0px);"><defs><clipPath id="__lottie_element_33"><rect width="48" height="38" x="0" y="0"></rect></clipPath></defs><g clip-path="url(#__lottie_element_33)"><g transform="matrix(1,0,0,1,0.36300086975097656,0.06299972534179688)" opacity="1" style="display: block;"><g opacity="1" transform="matrix(1,0,0,1,0,0)"><path fill="rgb(151,236,163)" fill-opacity="1" d=" M26.577999114990234,0 C19.90399932861328,1.0880000591278076 12.04699993133545,-2.052999973297119 6.171000003814697,3.181999921798706 C-2.6070001125335693,11.003000259399414 -2.2939999103546143,27.590999603271484 8.876999855041504,33.37900161743164 C12.63700008392334,35.32699966430664 22.65399932861328,35.11000061035156 25.214000701904297,34.79100036621094 C44.534000396728516,32.38199996948242 49.12699890136719,5.5920000076293945 28.61199951171875,0.5740000009536743 C28.61199951171875,0.5740000009536743 26.577999114990234,0 26.577999114990234,0z"></path></g></g><g transform="matrix(1,0,0,1,7,9)" opacity="1" style="display: block;"><g opacity="1" transform="matrix(1,0,0,1,0,0)"><path stroke-linecap="round" stroke-linejoin="round" fill-opacity="0" stroke="rgb(0,0,0)" stroke-opacity="1" stroke-width="2" d=" M30.343000411987305,0.3889999985694885 C21.820999145507812,0.4440000057220459 13.291000366210938,0.18700000643730164 4.776000022888184,0.5540000200271606 C3.6679999828338623,0.6019999980926514 1.9780000448226929,0.5809999704360962 1.628999948501587,1.6260000467300415 C-0.17000000178813934,7.019000053405762 -2.3889999389648438,26.6299991607666 6.60699987411499,26.881999969482422 C17,27.17300033569336 27.420000076293945,26.920000076293945 37.79199981689453,26.19700050354004 C38.76300048828125,26.128999710083008 39.060001373291016,24.084999084472656 38.750999450683594,20.27400016784668 C37.0260009765625,-0.9959999918937683 43.2869987487793,1.0390000343322754 32.310001373291016,0 C32.310001373291016,0 30.343000411987305,0.3889999985694885 30.343000411987305,0.3889999985694885z"></path></g></g><g transform="matrix(1,0,0,1,18,13)" opacity="1" style="display: block;"><g opacity="1" transform="matrix(1,0,0,1,0,0)"><path stroke-linecap="round" stroke-linejoin="round" fill-opacity="0" stroke="rgb(0,0,0)" stroke-opacity="1" stroke-width="2" d=" M9.800000190734863,0 C4.948999881744385,1.4290000200271606 4.51800012588501,0.8240000009536743 1.1970000267028809,4.388999938964844 C-1.9190000295639038,7.734000205993652 1.4500000476837158,19.43199920654297 6.671999931335449,19.91900062561035 C20.7549991607666,21.23200035095215 23.610000610351562,6.25600004196167 10.859000205993652,0.1770000010728836 C10.859000205993652,0.1770000010728836 9.800000190734863,0 9.800000190734863,0z"></path></g></g><g transform="matrix(1,0,0,1,23,17)" opacity="1" style="display: block;"><g opacity="1" transform="matrix(1,0,0,1,0,0)"><path stroke-linecap="round" stroke-linejoin="round" fill-opacity="0" stroke="rgb(0,0,0)" stroke-opacity="1" stroke-width="2" d=" M5,0 C2.1059999465942383,1.2070000171661377 -0.5189999938011169,1.5399999618530273 0.08900000154972076,5"></path></g></g><g transform="matrix(1,0,0,1,37,5)" opacity="1" style="display: block;"><g opacity="1" transform="matrix(1,0,0,1,0,0)"><path stroke-linecap="round" stroke-linejoin="round" fill-opacity="0" stroke="rgb(0,0,0)" stroke-opacity="1" stroke-width="2" d=" M0.0010000000474974513,3.936000108718872 C-0.07500000298023224,-1.0509999990463257 6.004000186920166,-1.590000033378601 6,4"></path></g></g><g transform="matrix(1,0,0,1,7,15.272000312805176)" opacity="1" style="display: block;"><g opacity="1" transform="matrix(1,0,0,1,0,0)"><path stroke-linecap="round" stroke-linejoin="round" fill-opacity="0" stroke="rgb(0,0,0)" stroke-opacity="1" stroke-width="2" d=" M0,0.4569999873638153 C4.333000183105469,0.3050000071525574 8.666999816894531,0.15199999511241913 13,0"></path></g></g><g transform="matrix(1,0,0,1,8,29.312000274658203)" opacity="1" style="display: block;"><g opacity="1" transform="matrix(1,0,0,1,0,0)"><path stroke-linecap="round" stroke-linejoin="round" fill-opacity="0" stroke="rgb(0,0,0)" stroke-opacity="1" stroke-width="2" d=" M0,0.37599998712539673 C4,0.25099998712539673 8,0.125 12,0"></path></g></g><g transform="matrix(1,0,0,1,34,15.40999984741211)" opacity="1" style="display: block;"><g opacity="1" transform="matrix(1,0,0,1,0,0)"><path stroke-linecap="round" stroke-linejoin="round" fill-opacity="0" stroke="rgb(0,0,0)" stroke-opacity="1" stroke-width="2" d=" M0,0.18000000715255737 C4,0.11999999731779099 8,0.05999999865889549 12,0"></path></g></g><g transform="matrix(1,0,0,1,35,29.433000564575195)" opacity="1" style="display: block;"><g opacity="1" transform="matrix(1,0,0,1,0,0)"><path stroke-linecap="round" stroke-linejoin="round" fill-opacity="0" stroke="rgb(0,0,0)" stroke-opacity="1" stroke-width="2" d=" M0,0.1340000033378601 C3.6670000553131104,0.08900000154972076 7.333000183105469,0.04500000178813934 11,0"></path></g></g></g></svg>