<svg xmlns="http://www.w3.org/2000/svg" viewBox="0 0 48 38" width="48" height="38" preserveAspectRatio="xMinYMin meet" style="width: 100%; height: 100%; transform: translate3d(0px, 0px, 0px);"><defs><clipPath id="__lottie_element_23"><rect width="48" height="38" x="0" y="0"></rect></clipPath></defs><g clip-path="url(#__lottie_element_23)"><g transform="matrix(1,0,0,1,0.36300086975097656,0.06299972534179688)" opacity="1" style="display: block;"><g opacity="1" transform="matrix(1,0,0,1,0,0)"><path fill="rgb(210,217,241)" fill-opacity="1" d=" M21.516000747680664,0 C16.113000869750977,1.11899995803833 9.753000259399414,-2.111999988555908 4.995999813079834,3.2730000019073486 C-2.109999895095825,11.317000389099121 -1.8569999933242798,28.3799991607666 7.185999870300293,34.33300018310547 C10.229999542236328,36.33700180053711 18.339000701904297,36.112998962402344 20.410999298095703,35.78499984741211 C36.05099868774414,33.30699920654297 39.76900100708008,5.750999927520752 23.16200065612793,0.5899999737739563 C23.16200065612793,0.5899999737739563 21.516000747680664,0 21.516000747680664,0z"></path></g></g><g transform="matrix(1,0,0,1,7,9)" opacity="1" style="display: block;"><g opacity="1" transform="matrix(1,0,0,1,0,0)"><path stroke-linecap="round" stroke-linejoin="round" fill-opacity="0" stroke="rgb(0,0,0)" stroke-opacity="1" stroke-width="2" d=" M13.616999626159668,0 C8.904000282287598,1.0019999742507935 6.598999977111816,0.41100001335144043 3.6470000743865967,3.7339999675750732 C-5.111000061035156,13.592000007629395 3.0280001163482666,28.451000213623047 16.14900016784668,27.989999771118164 C28.360000610351562,27.56100082397461 31.05299949645996,11.333000183105469 24.606000900268555,3.677000045776367 C22.25,0.8790000081062317 18.344999313354492,0.7570000290870667 15.121000289916992,0.035999998450279236 C15.121000289916992,0.035999998450279236 13.616999626159668,0 13.616999626159668,0z"></path></g></g><g transform="matrix(1,0,0,1,8,10)" opacity="1" style="display: block;"><g opacity="1" transform="matrix(1,0,0,1,0,0)"><path stroke-linecap="round" stroke-linejoin="round" fill-opacity="0" stroke="rgb(0,0,0)" stroke-opacity="1" stroke-width="2" d=" M0,3 C1.3329999446868896,2 2.6670000553131104,1 4,0"></path></g></g><g transform="matrix(1,0,0,1,30,9)" opacity="1" style="display: block;"><g opacity="1" transform="matrix(1,0,0,1,0,0)"><path stroke-linecap="round" stroke-linejoin="round" fill-opacity="0" stroke="rgb(0,0,0)" stroke-opacity="1" stroke-width="2" d=" M0,0 C1,1 2,2 3,3"></path></g></g><g transform="matrix(1,0,0,1,16,3)" opacity="1" style="display: block;"><g opacity="1" transform="matrix(1,0,0,1,0,0)"><path stroke-linecap="round" stroke-linejoin="round" fill-opacity="0" stroke="rgb(0,0,0)" stroke-opacity="1" stroke-width="2" d=" M2.628000020980835,5.978000164031982 C2.634000062942505,5.011000156402588 3.174999952316284,3.864000082015991 2.6449999809265137,3.0759999752044678 C2.24399995803833,2.4790000915527344 1.2269999980926514,3.1610000133514404 0.5730000138282776,2.9210000038146973 C-1.0169999599456787,2.3369998931884766 1.0789999961853027,0.16899999976158142 2.309999942779541,0.16699999570846558 C4.730999946594238,0.16200000047683716 7.269999980926514,-0.3529999852180481 9.569000244140625,0.44999998807907104 C10.243000030517578,0.6850000023841858 10.03600025177002,2.1429998874664307 9.562999725341797,2.7019999027252197 C9.562999725341797,2.7019999027252197 6.866000175476074,3.00600004196167 6.866000175476074,3.00600004196167 C6.236000061035156,3.75 6.802000045776367,5.001999855041504 6.770999908447266,6"></path></g></g><g transform="matrix(1,0,0,1,21,13)" opacity="1" style="display: block;"><g opacity="1" transform="matrix(1,0,0,1,0,0)"><path stroke-linecap="round" stroke-linejoin="round" fill-opacity="0" stroke="rgb(0,0,0)" stroke-opacity="1" stroke-width="2" d=" M0,0 C5.870999813079834,1.0149999856948853 6.906000137329102,1.9739999771118164 10,7"></path></g></g><g transform="matrix(1,0,0,1,18,21)" opacity="1" style="display: block;"><g opacity="1" transform="matrix(1,0,0,1,0,0)"><path stroke-linecap="round" stroke-linejoin="round" fill-opacity="0" stroke="rgb(0,0,0)" stroke-opacity="1" stroke-width="2" d=" M3.565000057220459,0.07500000298023224 C0.5199999809265137,-0.33799999952316284 -1.6859999895095825,3.2950000762939453 1.715999960899353,3.8940000534057617 C5.860000133514404,4.624000072479248 5.763000011444092,1.4010000228881836 3.197000026702881,0"></path></g></g><g transform="matrix(1,0,0,1,23,22.989999771118164)" opacity="1" style="display: block;"><g opacity="1" transform="matrix(1,0,0,1,0,0)"><path stroke-linecap="round" stroke-linejoin="round" fill-opacity="0" stroke="rgb(0,0,0)" stroke-opacity="1" stroke-width="2" d=" M0,0.020999999716877937 C2.6670000553131104,0.014000000432133675 5.333000183105469,0.007000000216066837 8,0"></path></g></g></g></svg>